<svg width="65" height="64" viewBox="0 0 65 64" fill="none" xmlns="http://www.w3.org/2000/svg">
<path d="M16.7966 38.36V30.66H17.3866V31.93C17.3866 32.15 17.4566 32.36 17.5866 32.54C18.6266 33.9 23.4966 40.28 25.0966 42.01V53.83C25.0966 54.38 25.5466 54.83 26.0966 54.83C26.6466 54.83 27.0966 54.38 27.0966 53.83V41.59C27.0966 41.3 26.9666 41.02 26.7466 40.83C26.1666 40.33 22.5566 35.75 19.3866 31.59V30.66H20.1966C22.5166 30.66 24.3966 28.78 24.3966 26.46V22.98C24.3966 22.43 23.9466 21.98 23.3966 21.98H18.1366C17.5866 21.98 17.1366 22.43 17.1366 22.98C17.1366 23.53 17.5866 23.98 18.1366 23.98H22.3966V26.46C22.3966 27.67 21.4066 28.66 20.1966 28.66H16.7966V14.13C16.7966 11.79 14.8966 9.89001 12.5566 9.89001H11.4266C9.08664 9.89001 7.18664 11.79 7.18664 14.13V17.73C5.44664 17.83 4.05664 19.26 4.05664 21.02V30.97C4.05664 32.73 5.44664 34.17 7.18664 34.26V38.35C7.18664 40.69 9.08664 42.59 11.4266 42.59H12.5566C14.8966 42.59 16.7966 40.69 16.7966 38.36ZM6.05664 30.97V21.02C6.05664 20.36 6.55664 19.84 7.18664 19.75V32.24C6.55664 32.15 6.05664 31.63 6.05664 30.97ZM14.7966 38.36C14.7966 39.59 13.7966 40.6 12.5566 40.6H11.4266C10.1966 40.6 9.18664 39.6 9.18664 38.36V14.13C9.18664 12.9 10.1866 11.89 11.4266 11.89H12.5566C13.7866 11.89 14.7966 12.89 14.7966 14.13V38.36Z" fill="black"/>
<path d="M58.5467 17.73V14.13C58.5467 11.79 56.6467 9.89001 54.3067 9.89001H53.1767C50.8367 9.89001 48.9367 11.79 48.9367 14.13V21.98H46.5267C46.4167 20.94 45.8767 19.99 44.9867 19.4L42.8567 17.98L42.7867 17.7C42.4667 16.41 41.4567 15.42 40.1667 15.11L38.1167 14.62C37.5867 14.49 37.0367 14.82 36.9067 15.36C36.7767 15.9 37.1067 16.44 37.6467 16.57L39.6967 17.06C40.2667 17.2 40.6967 17.63 40.8467 18.19L40.9967 18.8V18.81L41.6067 21.24C41.7167 21.69 42.1267 22 42.5767 22C42.6567 22 42.7367 21.99 42.8167 21.97C43.3167 21.84 43.6167 21.36 43.5467 20.86L43.8767 21.08C44.3067 21.37 44.5667 21.85 44.5667 22.37V22.97V22.99V23C44.5267 26.39 44.2167 34.97 41.9967 39.46C41.9567 39.54 41.9267 39.62 41.9167 39.71C41.8867 39.86 41.1667 43.43 41.0267 44.29C41.0167 44.34 41.0167 44.39 41.0167 44.44L40.8767 53.82C40.8667 54.37 41.3067 54.83 41.8667 54.83H41.8867C42.4367 54.83 42.8767 54.39 42.8867 53.84L43.0267 44.54C43.1767 43.69 43.7467 40.85 43.8667 40.22C45.0967 37.66 45.7767 34.07 46.1467 30.66H48.9467V38.36C48.9467 40.7 50.8467 42.6 53.1867 42.6H54.3167C56.6567 42.6 58.5567 40.7 58.5567 38.36V34.27C60.2967 34.17 61.6867 32.74 61.6867 30.97V21.02C61.6667 19.26 60.2767 17.83 58.5467 17.73ZM46.3267 28.66C46.4667 26.92 46.5267 25.29 46.5567 23.98H48.9367V28.66H46.3267ZM56.5467 38.36C56.5467 39.59 55.5467 40.6 54.3067 40.6H53.1767C51.9467 40.6 50.9367 39.6 50.9367 38.36V29.66V22.99V14.15C50.9367 12.92 51.9367 11.91 53.1767 11.91H54.3067C55.5367 11.91 56.5467 12.91 56.5467 14.15V38.36ZM59.6667 30.97C59.6667 31.63 59.1767 32.15 58.5367 32.25V19.75C59.1667 19.84 59.6667 20.36 59.6667 21.02V30.97Z" fill="black"/>
<path d="M23.3967 20.5601C23.9467 20.5601 24.3967 20.1101 24.3967 19.5601V11.1801H26.0367C26.6367 11.1801 27.1867 11.5301 27.4467 12.0801L29.8867 17.2901C30.1167 17.7901 30.7167 18.0101 31.2167 17.7701C31.7167 17.5401 31.9367 16.9401 31.6967 16.4401L30.2667 13.3801L32.8867 13.8801C33.4167 13.9801 33.8667 14.3601 34.0567 14.8701L35.4067 18.5001C35.5567 18.9001 35.9367 19.1501 36.3467 19.1501C36.4667 19.1501 36.5767 19.1301 36.6967 19.0901C37.2167 18.9001 37.4767 18.3201 37.2867 17.8001L35.9367 14.1701C35.5067 13.0101 34.4867 12.1501 33.2767 11.9201L29.2267 11.1401C28.6267 9.95005 27.3967 9.18005 26.0567 9.18005H23.4167C22.8667 9.18005 22.4167 9.63005 22.4167 10.1801V19.5601C22.3967 20.1201 22.8467 20.5601 23.3967 20.5601Z" fill="black"/>
</svg>
